Magno Mainak (2009)DVDRip - [Xvid].avi

Magno Mainak
Release Date:11 Sep 2009
Nengti, a young boy visits Byomkesh Bakshi, the famous ***ective from time to time. One day he comes and tells Byomkesh that a young girl by the name of Henna has been found dead in their house (Nengti and his sister stay in a house as adopted children of Santosh Sammaddar, a politician).Hearing this Byomkesh goes to investigate the matter. He discovers that Henna had either committed suicide or been murdered and she had fallen from the roof of the house.Byomkesh starts interrogating everyone and realizes that just about anyone might be the murderer. The day after his visit, someone ... 
[img]http://img96.imageshack.us/img96/6691/1cast.png[/img]
Subhrajit DuttaByomkesh Bokshi
Rajarshi MukherjeeAjit
Piyali MunsiSatyabati
Rupanjana MitraHena Mallick
Bimal ChakrabortySantosh Samaddar
Biplab ChattopadhyayRavi Verma
Gargi RaychowdhurySukumari
Soma ChakrabortyChameli
Sangeeta NandiChingri
Sourav MondalNengti
Arindam MaitraUday
Rajdip DebJugal
Debranjan NagBikash
Bipradas KabirajGupi
Rohit MukherjeeA.K. Roy (Police Man)
Manas SenchowdhuryMr. Das
Dr. Amitabha BhattacharyaPuntiram
Ashim RoychowdhuryHotel Manager
Partha Pratim ChattopadhayPion
CREW
DirectorSwapan Ghosal
ProducerNew Wave Communications
Music DirectorDebjit
LyricsPriyo Chatterjee
StorySaradindu Bandyopadhyay

General
Format : AVI
Format/Info : Audio Video Interleave
File size : 662 MiB
Duration : 1h 45mn
Overall bit rate : 879 Kbps
Video #0
ID : 0
Format : MPEG-4 Visual
Format profile : Advanced Simple@L5
Format settings, BVOP : 2
Format settings, QPel : No
Format settings, GMC : No warppoints
Format settings, Matrix : Default (H.263)
Codec ID : XVID
Codec ID/Hint : XviD
Duration : 1h 45mn
Bit rate : 808 Kbps
Width : 640 pixels
Height : 304 pixels
Display aspect ratio : 2.2:1
Frame rate : 29.970 fps
Color space : YUV
Chroma subsampling : 4:2:0
Bit depth : 8 bits
Scan type : Progressive
Compression mode : Lossy
Bits/(Pixel*Frame) : 0.139
Stream size : 609 MiB (92%)

Audio #1
ID : 1
Format : MPEG Audio
Format version : Version 2
Format profile : Layer 3
Mode : Joint stereo
Mode extension : MS Stereo
Codec ID : 55
Codec ID/Hint : MP3
Duration : 1h 45mn
Bit rate mode : Constant
Bit rate : 64.0 Kbps
Channel(s) : 2 channels
Sampling rate : 24.0 KHz
Compression mode : Lossy
Stream size : 48.2 MiB (7%)

Screen Shot:
[img]http://img442.imageshack.us/img442/6964/4screensnewred.png[/img]
[img]http://img99.imageshack.us/img99/2269/84689100.png[/img]
[img]http://img40.imageshack.us/img40/1046/65899438.png[/img]
[img]http://img837.imageshack.us/img837/9783/77883012.png[/img]
[img]http://img577.imageshack.us/img577/462/99304586.png[/img]
[img]http://img707.imageshack.us/img707/3571/98399922.png[/img]
[img]http://img513.imageshack.us/img513/182/48380467.png[/img]
[img]http://img20.imageshack.us/img20/1328/55766666.png[/img]